<?xml version="1.0" encoding="UTF-8" standalone="no"?><!DOCTYPE svg PUBLIC "-//W3C//DTD SVG 1.1//EN" "http://www.w3.org/Graphics/SVG/1.1/DTD/svg11.dtd"><svg width="100%" height="100%" viewBox="0 0 60 60" version="1.1" xmlns="http://www.w3.org/2000/svg" xmlns:xlink="http://www.w3.org/1999/xlink" xml:space="preserve" xmlns:serif="http://www.serif.com/" style="fill-rule:evenodd;clip-rule:evenodd;stroke-linejoin:round;stroke-miterlimit:1.41421;"><g><path d="M60,11c0,-6.071 -4.929,-11 -11,-11l-38,0c-6.071,0 -11,4.929 -11,11l0,38c0,6.071 4.929,11 11,11l38,0c6.071,0 11,-4.929 11,-11l0,-38Z" style="fill:#1c1222;"/><path id="svg_1" d="M32.929,41.584l-5.007,-9.195l-1.898,0l0,9.195l-5.498,0l0,-23.168l8.836,0c1.113,0 2.198,0.114 3.256,0.343c1.058,0.229 2.007,0.617 2.847,1.162c0.84,0.545 1.511,1.265 2.012,2.16c0.502,0.894 0.753,2.007 0.753,3.338c0,1.57 -0.425,2.89 -1.276,3.959c-0.851,1.069 -2.029,1.833 -3.534,2.291l6.054,9.915l-6.545,0Zm-0.229,-16.067c0,-0.546 -0.115,-0.987 -0.344,-1.326c-0.229,-0.338 -0.523,-0.6 -0.883,-0.785c-0.36,-0.185 -0.764,-0.311 -1.211,-0.376c-0.447,-0.066 -0.878,-0.098 -1.293,-0.098l-2.978,0l0,5.399l2.651,0c0.458,0 0.927,-0.038 1.407,-0.114c0.48,-0.077 0.916,-0.213 1.309,-0.41c0.393,-0.196 0.715,-0.479 0.965,-0.85c0.251,-0.371 0.377,-0.851 0.377,-1.44Z" style="fill:#fff;fill-rule:nonzero;"/></g></svg>